<svg xmlns="http://www.w3.org/2000/svg" version="1.1" xmlns:xlink="http://www.w3.org/1999/xlink" xmlns:svgjs="http://svgjs.com/svgjs" width="512" height="512" x="0" y="0" viewBox="0 0 512 512" style="enable-background:new 0 0 512 512" xml:space="preserve" class=""><g><linearGradient id="a" x1="22.562" x2="489.438" y1="256" y2="256" gradientUnits="userSpaceOnUse"><stop stop-opacity="1" stop-color="#cde497" offset="0.011583011583011582"></stop><stop stop-opacity="1" stop-color="#8ef232" offset="1"></stop></linearGradient><path fill="url(#a)" fill-rule="evenodd" d="M131.6 219.987a6.546 6.546 0 0 1-9.485-9.023 143.348 143.348 0 0 1 207.767 0 6.545 6.545 0 1 1-9.484 9.023 130.264 130.264 0 0 0-188.8 0zm28.058 31.313a88.494 88.494 0 0 1 132.679 0 6.537 6.537 0 1 0 9.792-8.664 101.5 101.5 0 0 0-152.263 0 6.537 6.537 0 1 0 9.792 8.664zM430.97 438.515a4.36 4.36 0 0 0 1.29-3.086V368.11a4.406 4.406 0 0 0-4.376-4.377h-73.21a4.406 4.406 0 0 0-4.376 4.377v67.319a4.406 4.406 0 0 0 4.376 4.377h73.21a4.365 4.365 0 0 0 3.086-1.291zm-17.1-87.907a22.591 22.591 0 0 0-45.178 0zM394.14 392.3a4.046 4.046 0 1 1-2.861-1.185 4.034 4.034 0 0 1 2.861 1.185zm3.7 18.731v14.836a6.563 6.563 0 1 1-13.125 0v-14.835a17.155 17.155 0 1 1 13.125 0zm62.847-96.388a98.16 98.16 0 1 1-69.409-28.75 97.851 97.851 0 0 1 69.409 28.75zM233.694 302.2a10.887 10.887 0 1 0 3.187 7.7 10.85 10.85 0 0 0-3.187-7.7zM226 285.891a24.01 24.01 0 1 1-16.976 7.032A23.937 23.937 0 0 1 226 285.891zm-37.793-3.333a6.553 6.553 0 0 1-10.613-7.69 59.773 59.773 0 0 1 96.811 0 6.553 6.553 0 0 1-10.613 7.69 46.6 46.6 0 0 0-75.585 0zm199-9.714q2.175-10.226 3.4-20.623a222.416 222.416 0 0 0 1.506-25.872v-110.7L226 67.782 59.884 115.653v110.7a227.638 227.638 0 0 0 47.258 138.21A222.66 222.66 0 0 0 226 444.218a224.578 224.578 0 0 0 32.3-11.451 221.082 221.082 0 0 0 27.105-14.33 111.319 111.319 0 0 1 101.8-145.593zm-32.457 77.764q.417-.636.849-1.305a35.717 35.717 0 0 1 71.394 1.305h.891a17.536 17.536 0 0 1 17.5 17.5v67.319a17.536 17.536 0 0 1-17.5 17.5h-73.21a17.536 17.536 0 0 1-17.5-17.5V368.11a17.536 17.536 0 0 1 17.5-17.5zm68.555-73.157q2.654-12.353 4.189-25.1a271.682 271.682 0 0 0 1.939-32.408V84.261L226 25.634 22.562 84.261v135.682A278.263 278.263 0 0 0 80.334 388.89a272.188 272.188 0 0 0 145.671 97.476 273.947 273.947 0 0 0 42.534-15.281 270.362 270.362 0 0 0 34.674-19 111.226 111.226 0 0 1-12.935-21.259 234.675 234.675 0 0 1-26.694 13.933 237.483 237.483 0 0 1-35.946 12.555l-1.64.431-1.641-.431a235.694 235.694 0 0 1-127.571-84.757A240.835 240.835 0 0 1 46.76 226.349V105.84Q136.379 80.018 226 54.187l179.236 51.653v120.509a235.213 235.213 0 0 1-1.609 27.359q-1.149 9.81-3.1 19.443a110.786 110.786 0 0 1 22.778 4.3z" data-original="url(#a)"></path></g></svg>